<svg xmlns="http://www.w3.org/2000/svg" xmlns:xlink="http://www.w3.org/1999/xlink" version="1.1" x="0px" y="0px" viewBox="0 0 100 125" enable-background="new 0 0 100 100" xml:space="preserve"><g><circle fill="#000000" cx="49.988" cy="66.898" r="2.236"/><path fill="#000000" d="M90.077,15.47H9.882c-2.687,0-4.873,2.299-4.873,5.125v48.657c0,2.687,2.186,4.873,4.873,4.873l29.814,0.01   v3.083c0,0.175-0.077,4.288-6.777,4.288h-1v3.244h36.216v-3.244h-1c-6.619,0-6.772-4.121-6.775-4.288v-3.083l29.718-0.01   c2.687,0,4.872-2.187,4.872-4.873V20.595C94.949,17.769,92.764,15.47,90.077,15.47z M9.882,17.47h80.195   c1.584,0,2.872,1.402,2.872,3.125V59.79H7.009V20.595C7.009,18.872,8.298,17.47,9.882,17.47z M59.525,80.454   c0.587,0.799,1.545,1.685,3.092,2.296H37.45c4.184-1.66,4.246-5.483,4.246-5.532v-3.083h16.664v3.083   C58.359,77.387,58.392,78.912,59.525,80.454z M90.077,72.125H9.882c-1.584,0-2.873-1.289-2.873-2.873V61.79h85.94v7.462   C92.949,70.836,91.661,72.125,90.077,72.125z"/></g><text x="0" y="115" fill="#000000" font-size="5px" font-weight="bold" font-family="'Helvetica Neue', Helvetica, Arial-Unicode, Arial, Sans-serif">Created by Patrizia Daidone</text><text x="0" y="120" fill="#000000" font-size="5px" font-weight="bold" font-family="'Helvetica Neue', Helvetica, Arial-Unicode, Arial, Sans-serif">from the Noun Project</text></svg>